<svg width="24" height="20" viewBox="0 0 24 20" fill="none" xmlns="http://www.w3.org/2000/svg">
<path d="M1.57639 19.2H3.38302C4.40147 19.2 4.98598 18.5825 4.98598 17.8551C4.98598 17.0939 4.56974 16.7725 3.71955 16.6879C3.32103 16.6456 3.32989 16.1889 3.66642 16.1466C5.8273 15.8167 7.138 14.7426 7.39483 12.8987C8.71435 13.7952 10.9373 13.9306 13.169 13.6599C13.1601 14.8948 12.9653 16.5949 12.9653 17.4745C12.9653 18.5064 13.6561 19.2 14.7099 19.2H16.1978C17.2073 19.2 17.7919 18.5825 17.7919 17.8805C17.7919 17.1447 17.4288 16.8232 16.4635 16.6879C16.2598 16.654 16.1535 16.5272 16.1978 16.3327C16.366 15.4614 16.8797 13.6514 17.1719 12.8225C17.783 11.0886 18.6421 9.97218 18.6421 8.17902C18.6421 7.34166 18.8811 6.84263 19.0849 6.62272C19.7845 7.02872 20.2982 7.23171 20.9801 7.23171C22.4944 7.23171 24 5.75999 24 4.22061C24 3.40863 23.2915 3.3748 22.397 2.83348C21.6177 2.3429 21.1749 1.70854 20.4841 1.3533C20.245 2.45286 19.3683 4.17832 17.8185 4.17832C16.8708 4.17832 16.1801 3.52704 15.7373 2.78273C15.0376 3.69621 14.7542 4.45744 12.8768 5.08334L5.29594 5.65004C5.1011 5.65849 4.93284 5.7177 4.81771 5.75999L4.1535 4.99876C3.07307 3.77233 1.3904 5.21867 2.46199 6.39435L3.19705 7.20634C2.83395 8.02678 2.63911 9.01641 2.63911 10.2512C2.63911 12.1205 2.48856 12.6364 1.90406 13.0932C0.513653 14.142 0 14.8356 0 16.0112V17.6183C0 18.5487 0.65535 19.2 1.57639 19.2ZM20.9358 4.31365C20.6081 4.31365 20.369 4.07682 20.369 3.78079C20.369 3.4763 20.6081 3.25638 20.9358 3.25638C21.2457 3.25638 21.4849 3.4763 21.4849 3.78079C21.4849 4.07682 21.2457 4.31365 20.9358 4.31365ZM17.8185 3.40863C19.0849 3.40863 19.7402 1.36176 19.7402 0.786607C19.7402 0.27066 19.4568 0 18.8989 0H16.7468C16.1889 0 15.8967 0.27066 15.8967 0.786607C15.8967 1.36176 16.5521 3.40863 17.8185 3.40863Z" fill="#4D70FF" fill-opacity="0.85"/>
</svg>
