<svg width="24" height="20" viewBox="0 0 24 20" fill="none" xmlns="http://www.w3.org/2000/svg">
<path d="M4.4841 19.2H5.67752C6.77442 19.2 7.4852 18.6219 7.4852 17.7018C7.4852 16.8468 6.95869 16.4641 6.33566 16.3257V15.1287C6.33566 14.2982 6.42341 13.7934 6.61647 13.3211C7.60806 13.7038 9.07347 13.94 10.3459 13.94C11.5218 13.94 12.8117 13.8178 13.8297 13.598C13.9525 14.0784 14.0754 14.5181 14.0754 14.6484C14.0754 15.7557 13.9525 16.3094 13.9525 17.3761C13.9525 18.5486 14.6369 19.2 15.8742 19.2H16.9974C18.0592 19.2 18.8139 18.5893 18.8139 17.7018C18.8139 16.8468 18.2874 16.4641 17.6556 16.3257V15.658C17.6556 11.6356 21.034 12.8325 21.2271 7.13282C22.8066 6.93741 24 5.88702 24 5.00763C24 3.99797 22.8856 2.75216 21.7185 2.13333C21.4464 0.99338 20.5953 0.26056 20.0073 0.26056C19.4106 0.26056 18.7261 1.00153 18.3225 1.97048C17.6644 2.51603 16.9448 3.38727 16.4797 4.14453L16.0058 4.90992C15.8041 5.25191 15.6198 5.4229 15.3038 5.4229C11.9956 5.4229 10.6794 4.96692 7.35357 4.96692C5.58099 4.96692 4.50165 5.56133 3.86107 6.35114C3.56271 6.71756 3.20293 6.66056 2.83437 6.47328C1.8691 6.03359 1.2724 5.13791 1.2724 4.03053C1.2724 2.35318 2.7203 1.18066 4.7649 1.18066C5.54589 1.18066 6.33566 1.32722 7.25705 1.67735C8.16089 2.01119 8.59962 0.895675 7.76601 0.569975C6.68667 0.170992 5.67752 0 4.7649 0C1.95686 0 0 1.66106 0 4.03053C0 5.67532 0.877514 6.97812 2.25521 7.5888C2.7203 7.80865 2.8958 8.01219 2.88703 8.45187C2.8607 9.06261 2.8607 9.51039 2.8607 9.78729C2.8607 12.1568 1.59708 12.8977 1.95686 14.1517L3.09763 18.0437C3.33455 18.8499 3.79087 19.2 4.4841 19.2ZM4.85266 18.0194C4.56308 18.0194 4.37003 17.8483 4.24717 17.4249L3.19415 13.8422C3.01865 13.2478 4.13309 12.5394 4.13309 9.78729C4.13309 8.67176 4.18574 6.14758 7.35357 6.14758C10.3283 6.14758 12.7327 6.60356 15.5759 6.60356C16.1375 6.60356 16.6991 6.22901 17.1028 5.56133L17.6205 4.69822C18.1382 3.84325 18.656 3.12672 19.1123 2.8173C19.6125 1.79135 19.8055 1.49007 19.9898 1.49007C20.1039 1.49007 20.4461 1.8972 20.6479 2.75216C21.7448 3.34656 22.7276 4.3888 22.7276 4.96692C22.7276 5.3659 21.8676 6.04173 20.6216 6.04173H20.5075C20.1565 6.04173 19.9634 6.22901 19.9634 6.57099V6.69313C19.9634 11.9613 16.3832 10.3165 16.3832 15.658V16.798C16.3832 17.0015 16.5149 17.1236 16.743 17.1236H16.936C17.3485 17.1236 17.5416 17.2865 17.5416 17.5715C17.5416 17.8728 17.3397 18.0194 16.9185 18.0194H16.0147C15.4969 18.0194 15.2249 17.7669 15.2249 17.2865C15.2249 16.513 15.3477 15.9593 15.3477 14.6484C15.3477 14.1923 14.909 12.9384 14.909 12.3196C14.909 12.0753 15.0845 11.6763 15.2776 11.2367C15.5846 10.5445 14.4088 10.0886 14.0841 10.8214C13.8472 11.3751 13.6366 11.9206 13.6366 12.4336C12.7942 12.629 11.5305 12.7592 10.3459 12.7592C9.20509 12.7592 8.00293 12.5639 7.24828 12.287C7.5905 11.7985 7.8713 11.3343 7.98538 11.0412C8.24864 10.3409 7.14297 9.86868 6.74809 10.6422C6.44096 11.2855 6.1075 11.7659 5.73017 12.3847C5.27387 13.1175 5.06326 13.6142 5.06326 14.5262V16.798C5.06326 17.0015 5.19489 17.1236 5.41427 17.1236H5.60732C6.01975 17.1236 6.21281 17.3028 6.21281 17.5715C6.21281 17.8809 6.01098 18.0194 5.59854 18.0194H4.85266ZM20.7357 4.73893C21.0428 4.73893 21.3061 4.51094 21.3061 4.21781C21.3061 3.92468 21.0428 3.68855 20.7357 3.68855C20.4197 3.68855 20.1653 3.92468 20.1653 4.21781C20.1653 4.51094 20.4197 4.73893 20.7357 4.73893Z" fill="#64748B" fill-opacity="0.85"/>
</svg>
