<svg width="20" height="20" viewBox="0 0 20 20" fill="none" xmlns="http://www.w3.org/2000/svg">
<path d="M18.8 10.208C18.8 9.55801 18.7417 8.93301 18.6333 8.33301H10V11.883H14.9333C14.7167 13.0247 14.0667 13.9913 13.0917 14.6413V16.9497H16.0667C17.8 15.3497 18.8 12.9997 18.8 10.208V10.208" fill="#4285F4"/>
<path d="M9.99974 19.1667C12.4747 19.1667 14.5497 18.35 16.0664 16.95L13.0914 14.6417C12.2747 15.1917 11.2331 15.525 9.99974 15.525C7.61641 15.525 5.59141 13.9167 4.86641 11.75H1.81641V14.1167C3.32474 17.1083 6.41641 19.1667 9.99974 19.1667V19.1667" fill="#34A853"/>
<path d="M4.86634 11.7416C4.68301 11.1916 4.57467 10.6083 4.57467 9.99993C4.57467 9.3916 4.68301 8.80827 4.86634 8.25827V5.8916H1.81634C1.19134 7.12493 0.833008 8.5166 0.833008 9.99993C0.833008 11.4833 1.19134 12.8749 1.81634 14.1083L4.19134 12.2583L4.86634 11.7416V11.7416" fill="#FBBC05"/>
<path d="M9.99974 4.48301C11.3497 4.48301 12.5497 4.94967 13.5081 5.84967L16.1331 3.22467C14.5414 1.74134 12.4747 0.833008 9.99974 0.833008C6.41641 0.833008 3.32474 2.89134 1.81641 5.89134L4.86641 8.25801C5.59141 6.09134 7.61641 4.48301 9.99974 4.48301V4.48301" fill="#EA4335"/>
</svg>
