<svg width="24" height="20" viewBox="0 0 24 20" fill="none" xmlns="http://www.w3.org/2000/svg">
<path d="M1.80953 19.1668H3.57576C4.68398 19.1668 5.41126 18.4034 5.41126 17.5903C5.41126 17.1174 5.20347 16.6278 4.70996 16.3872C6.34632 15.7566 7.36797 14.6863 7.69698 13.1347C8.96967 13.8482 10.8832 13.9561 12.8745 13.7569C12.8485 14.902 12.6667 16.5366 12.6667 17.275C12.6667 18.5279 13.342 19.2 14.6147 19.2H16.0952C17.394 19.2 18.0866 18.4034 18.0866 17.441C18.0866 16.7772 17.7835 16.0553 16.7446 15.6571C16.8052 14.8522 17.1949 13.06 17.4546 12.3215C17.8875 11.1184 18.7619 10.0895 18.7619 8.39687C18.7619 7.65843 18.9091 7.26015 19.0563 6.93656C19.6364 7.26846 20.1645 7.4261 20.7793 7.4261C22.3636 7.4261 24 5.84131 24 4.18185C24 3.26914 22.7013 2.71322 21.9827 2.27346C21.1255 1.70095 20.5455 0.945894 19.6277 0.555921L19.368 1.72584C20.0173 2.04114 20.4848 2.67173 21.2468 3.15298C22.0607 3.67571 22.6581 3.7255 22.6581 4.3229C22.6581 5.17753 21.697 6.13172 20.7793 6.13172C20.2684 6.13172 19.8615 5.98237 19.1515 5.50942C18.8225 5.29369 18.4849 5.33518 18.2857 5.63388C17.6278 6.55488 17.42 7.29335 17.42 8.39687C17.42 9.61656 16.6926 10.4049 16.1559 11.9564C15.8701 12.8193 15.3853 14.9767 15.3853 15.9557C15.3853 16.1964 15.4719 16.4038 15.7836 16.5116C16.6147 16.7357 16.7359 17.1091 16.7359 17.3663C16.7359 17.7065 16.5108 17.8724 16.0952 17.8724H14.6581C14.2251 17.8724 14.026 17.6567 14.026 17.2169C14.026 15.6239 14.3377 13.4665 14.3377 12.6949C14.3377 12.3215 13.9827 12.1224 13.5671 12.2552C11.1861 13.0185 8.73595 12.5123 7.37663 11.4752C6.99568 11.1765 6.55412 11.4005 6.55412 11.7988C6.55412 13.9727 5.47187 15.0265 3.03896 15.6239C2.5368 15.7566 2.5368 16.4785 3.03896 16.5615C3.71429 16.661 4.06061 16.9597 4.06061 17.3663C4.06061 17.6899 3.80087 17.8724 3.41991 17.8724H1.97403C1.59308 17.8724 1.342 17.6069 1.342 17.2169V15.6321C1.342 15.0015 1.60173 14.6282 2.77922 13.7321C3.67966 13.0434 3.93074 12.1058 3.93074 10.131C3.93074 9.10216 4.06061 7.93224 4.51949 7.35142L3.27273 6.00726C2.87446 5.5758 3.47187 5.11944 3.85282 5.54261L5.04763 6.87018C5.20347 6.75402 5.42858 6.68764 5.73161 6.67104L13.0736 6.08194C16.3204 5.03648 16.1732 3.69231 17.1949 2.67174L16.3896 1.64287C14.6147 3.18617 14.987 4.05739 12.7966 4.80415L6.03464 5.35177C5.79221 5.36836 5.5671 5.39326 5.35931 5.41815L4.72728 4.69628C3.4026 3.19447 0.865801 5.01988 2.32035 6.67934L2.98702 7.4427C2.72728 8.19773 2.58009 9.10216 2.58009 10.131C2.58009 11.8901 2.44156 12.3464 1.95671 12.7198C0.571429 13.7653 0 14.5452 0 15.6321V17.358C0 18.42 0.753248 19.1668 1.80953 19.1668ZM17.8442 3.80017C19.2554 3.80017 19.9741 1.5267 19.9741 0.879516C19.9741 0.307001 19.6623 0 19.0389 0H16.658C16.0346 0 15.7143 0.307001 15.7143 0.879516C15.7143 1.5267 16.4416 3.80017 17.8442 3.80017ZM17.8442 2.68004C17.4027 2.68004 17.0476 1.77563 16.9524 1.26949C16.935 1.18651 16.9957 1.12014 17.0823 1.12014H18.6147C18.7013 1.12014 18.7619 1.18651 18.7446 1.26949C18.6494 1.77563 18.2857 2.68004 17.8442 2.68004ZM20.0866 4.31461C20.4416 4.31461 20.7273 4.0325 20.7273 3.68401C20.7273 3.33552 20.4416 3.07001 20.0866 3.07001C19.723 3.07001 19.4372 3.33552 19.4372 3.68401C19.4372 4.0325 19.723 4.31461 20.0866 4.31461Z" fill="#64748B" fill-opacity="0.85"/>
</svg>
