<svg width="24" height="20" viewBox="0 0 24 20" fill="none" xmlns="http://www.w3.org/2000/svg">
<path d="M4.78399 19.2H5.75324C6.73138 19.2 7.26491 18.7783 7.26491 17.9763C7.26491 17.414 6.78473 16.9344 5.85994 16.769V14.768C5.85994 13.9328 6.03779 13.4284 6.598 12.6099C8.20749 13.1639 9.22119 13.3375 10.4839 13.3375C11.951 13.3375 13.5517 13.1225 14.3965 12.8827C14.6187 13.5773 14.8233 14.3463 14.8233 15.1732C14.8233 16.1571 14.6988 17.1494 14.6988 17.9349C14.6988 18.7783 15.2145 19.2 16.166 19.2H17.2241C18.1756 19.2 18.7447 18.737 18.7447 17.9763C18.7447 17.3313 18.3713 16.9179 17.5709 16.8104V15.9008C17.5709 11.3365 21.1101 12.6181 21.1989 6.9871C22.8351 6.87133 24 5.89562 24 5.16797C24 4.09303 22.7907 2.99329 21.3857 2.05892C21.1101 1.12455 20.5409 0.388632 20.1319 0.388632C19.7407 0.388632 19.0737 1.08321 18.7625 2.1168C18.0333 2.78657 17.4287 3.59691 16.9841 4.34936L16.6461 4.8951C16.3261 5.45738 16.0504 5.80466 15.668 5.80466C12.0845 5.80466 10.7684 5.34161 7.45164 5.34161C5.87773 5.34161 4.8907 5.83774 4.27714 6.51578C3.93924 6.87133 3.70804 6.96229 3.15673 6.75557C2.06299 6.37521 1.28937 5.37469 1.28937 4.09303C1.28937 2.3814 2.74769 1.19897 4.82845 1.19897C5.61986 1.19897 6.42015 1.3478 7.36272 1.70336C8.26972 2.03411 8.71431 0.909564 7.86958 0.578813C6.77584 0.173644 5.75324 0 4.82845 0C1.98296 0 0 1.67856 0 4.09303C0 5.87081 1.00482 7.26823 2.56984 7.83051C3.05002 8.0124 3.25454 8.33488 3.24565 8.80622C3.21897 9.32716 3.21897 9.69101 3.21897 9.93906C3.21897 12.6925 1.93849 13.0646 2.29418 14.2967L3.39681 18.1085C3.61023 18.8362 4.07262 19.2 4.78399 19.2ZM21.2434 4.60569C20.95 4.60569 20.7188 4.39898 20.7188 4.12611C20.7188 3.85324 20.95 3.63825 21.2434 3.63825C21.528 3.63825 21.7592 3.85324 21.7592 4.12611C21.7592 4.39898 21.528 4.60569 21.2434 4.60569Z" fill="#4D70FF" fill-opacity="0.85"/>
</svg>
