<svg width="14" height="22" viewBox="0 0 14 22" fill="none" xmlns="http://www.w3.org/2000/svg">
<path d="M5.72727 21.6364V19.0909H3.18182V16.5455H5.72727V13.8727C4.05152 13.5758 2.67803 12.775 1.60682 11.4705C0.535606 10.1659 0 8.65455 0 6.93636C0 5.00606 0.684091 3.36742 2.05227 2.02045C3.42045 0.673485 5.0697 0 7 0C8.9303 0 10.5795 0.673485 11.9477 2.02045C13.3159 3.36742 14 5.00606 14 6.93636C14 8.65455 13.4644 10.1659 12.3932 11.4705C11.322 12.775 9.94849 13.5758 8.27273 13.8727V16.5455H10.8182V19.0909H8.27273V21.6364H5.72727ZM7 11.4545C8.2303 11.4545 9.2803 11.0197 10.15 10.15C11.0197 9.2803 11.4545 8.2303 11.4545 7C11.4545 5.7697 11.0197 4.7197 10.15 3.85C9.2803 2.9803 8.2303 2.54545 7 2.54545C5.7697 2.54545 4.7197 2.9803 3.85 3.85C2.9803 4.7197 2.54545 5.7697 2.54545 7C2.54545 8.2303 2.9803 9.2803 3.85 10.15C4.7197 11.0197 5.7697 11.4545 7 11.4545Z" fill="#64748B"/>
</svg>
